<?xml version="1.0" encoding="UTF-8" standalone="no"?>
<svg
   id="Layer_1"
   height="24"
   viewBox="0 0 24 24"
   width="24"
   version="1.1"
   sodipodi:docname="compost.svg"
   inkscape:version="1.2.1 (9c6d41e, 2022-07-14)"
   xmlns:inkscape="http://www.inkscape.org/namespaces/inkscape"
   xmlns:sodipodi="http://sodipodi.sourceforge.net/DTD/sodipodi-0.dtd"
   xmlns="http://www.w3.org/2000/svg"
   xmlns:svg="http://www.w3.org/2000/svg">
  <defs
     id="defs18" />
  <sodipodi:namedview
     id="namedview16"
     pagecolor="#ffffff"
     bordercolor="#666666"
     borderopacity="1.0"
     inkscape:showpageshadow="2"
     inkscape:pageopacity="0.0"
     inkscape:pagecheckerboard="0"
     inkscape:deskcolor="#d1d1d1"
     showgrid="false"
     inkscape:zoom="9.8333333"
     inkscape:cx="12"
     inkscape:cy="10.779661"
     inkscape:window-width="1309"
     inkscape:window-height="456"
     inkscape:window-x="52"
     inkscape:window-y="38"
     inkscape:window-maximized="0"
     inkscape:current-layer="Layer_1" />
  <path
     id="path345"
     d="m 12.000004,4.5357165 c -0.433715,0 -0.785715,0.3520005 -0.785715,0.7857149 0,0.4337144 0.352,0.7857149 0.785715,0.7857149 0.435811,0 0.787809,-0.3520005 0.787809,-0.7857149 0,-0.4337144 -0.352,-0.7857149 -0.787809,-0.7857149 z M 9.6428601,6.1071461 c -0.433715,0 -0.7857152,0.3520004 -0.7857152,0.7857149 0,0.4337144 0.3520002,0.7857148 0.7857152,0.7857148 0.4337139,0 0.7857139,-0.3520004 0.7857139,-0.7857148 0,-0.4337144 -0.352,-0.7857149 -0.7857139,-0.7857149 z M 5.7142859,10.033625 H 18.285721 v 11.39496 H 5.7142859 Z M 12.000004,2.5714296 c 0.877904,0 1.573524,0.6956197 1.573524,1.5714295 0,0.4337144 0.352001,0.7857149 0.785714,0.7857149 h 1.569334 c 0.442087,0 0.785707,0.3436193 0.785707,0.7857149 v 0.3928579 c -0.0021,0.4337144 0.349914,0.7857149 0.785707,0.7857149 0.442086,0 0.785707,0.3415234 0.785707,0.785715 v 0.783619 H 5.7142692 v -0.783619 c 0,-0.4441904 0.3415245,-0.785715 0.7857148,-0.785715 0.4337145,0 0.7857149,-0.3520005 0.7857149,-0.7857149 V 5.7142889 c 0,-0.4420956 0.3415245,-0.7857149 0.7857149,-0.7857149 h 1.5714293 c 0.4337309,0.0021 0.7857319,-0.3499047 0.7857319,-0.7857149 0,-0.8758101 0.69562,-1.5714295 1.571429,-1.5714295 z M 12.000004,1 C 10.545384,1 9.3091931,2.0067626 8.9571926,3.3571444 H 8.0714305 c -1.2031912,0 -2.2099537,0.9250475 -2.3430014,2.0952393 C 4.8096657,5.7755743 4.1428566,6.655575 4.1428566,7.6785758 V 8.4621947 H 3.3571418 c -0.4358097,0 -0.7857148,0.3520004 -0.7857148,0.7857143 0,0.433715 0.3499051,0.785716 0.7857148,0.785716 h 0.7857148 v 11.39496 H 3.3571418 c -0.4358097,0 -0.7857148,0.351999 -0.7857148,0.785708 C 2.571427,22.648007 2.921332,23 3.3571418,23 H 20.642866 c 0.435804,0 0.785707,-0.352004 0.785707,-0.785707 0,-0.433715 -0.349914,-0.785707 -0.785707,-0.785707 H 19.857152 V 10.033625 h 0.785706 c 0.435804,0 0.785707,-0.352001 0.785707,-0.785715 0,-0.4337145 -0.349914,-0.7857151 -0.785707,-0.7857151 h -0.785706 v -0.783619 c 0,-1.0230008 -0.666809,-1.9030011 -1.585573,-2.2261918 C 18.138534,4.2821926 17.13177,3.3571443 15.928577,3.3571443 H 15.044909 C 14.692911,2.0067626 13.456718,1 12.000004,1 Z"
     style="stroke-width:0.52381" />
</svg>
